<svg width="30" height="30" viewBox="0 0 30 30" fill="none" xmlns="http://www.w3.org/2000/svg">
<path d="M28.3447 0H1.65526C0.741085 0 0 0.741085 0 1.65526V28.3447C0 29.2589 0.741085 30 1.65526 30H28.3447C29.2589 30 30 29.2589 30 28.3447V1.65526C30 0.741085 29.2589 0 28.3447 0Z" fill="#3D5A98"/>
<path d="M20.6973 29.9974V18.3802H24.5959L25.1789 13.8529H20.6973V10.9632C20.6973 9.65269 21.0623 8.75788 22.9406 8.75788H25.3386V4.70212C24.1774 4.5811 23.0105 4.52356 21.843 4.52975C18.3906 4.52975 16.0129 6.63368 16.0129 10.5145V13.8529H12.1143V18.3802H16.0129V29.9974H20.6973Z" fill="white"/>
</svg>
