<svg width="16" height="12" viewBox="0 0 16 12" fill="none" xmlns="http://www.w3.org/2000/svg">
<path d="M0.0916235 6.64533C0.154744 7.12364 0.391313 7.56287 0.757203 7.88109C1.12309 8.1993 1.59332 8.37478 2.08016 8.37478C2.56701 8.37478 3.03724 8.1993 3.40313 7.88109C3.76902 7.56287 4.00559 7.12364 4.06871 6.64533H0.0916235ZM10.9271 10.6456C10.9272 10.6861 10.9193 10.7261 10.9038 10.7635C10.8883 10.8009 10.8655 10.835 10.8367 10.8636C10.8079 10.8923 10.7737 10.9151 10.736 10.9306C10.6984 10.9462 10.658 10.9542 10.6171 10.9543H4.82281C4.65261 10.9543 4.51223 10.8158 4.51223 10.6456C4.51264 10.5643 4.54556 10.4865 4.60378 10.4292C4.662 10.372 4.74077 10.3399 4.82281 10.3401H10.6168C10.7883 10.3401 10.9271 10.4767 10.9271 10.6456ZM4.54608 11.1116H10.8936V12H4.54608V11.1116ZM11.4607 6.64533C11.5234 7.12396 11.7598 7.56362 12.1257 7.88222C12.4916 8.20082 12.962 8.37658 13.4491 8.37667C13.9361 8.37668 14.4065 8.20094 14.7723 7.8823C15.1381 7.56366 15.3742 7.12394 15.4365 6.64533H11.4607ZM15.3272 6.02708L13.6988 3.80459H14.5694C14.7812 3.80459 14.9517 3.63256 14.9517 3.41991C14.9517 3.20911 14.7809 3.03893 14.5694 3.03893H9.95777C9.82088 2.66531 9.58707 2.334 9.27989 2.07837C8.9727 1.82273 8.60297 1.65177 8.20792 1.58271V0.383445C8.20792 0.170181 8.03523 1.12774e-06 7.82123 1.12774e-06L7.7852 0.00400175L7.74918 1.12774e-06C7.69837 -0.000121266 7.64803 0.00972005 7.60108 0.028958C7.55412 0.0481959 7.51147 0.0764501 7.47558 0.112093C7.4397 0.147735 7.41129 0.190062 7.39198 0.236633C7.37268 0.283204 7.36287 0.3331 7.36312 0.383445V1.58209C6.96811 1.65111 6.59844 1.82205 6.29135 2.07771C5.98425 2.33336 5.75059 2.66469 5.61388 3.03831H1.00134C0.791068 3.03831 0.619624 3.20849 0.619624 3.4193C0.619624 3.63225 0.791068 3.80397 1.00134 3.80397H1.83216L0.203435 6.02647H0V6.43699H4.16126V6.02647H3.95689L2.32879 3.80459H6.10834C6.10834 3.7178 6.11797 3.63256 6.13101 3.55101C6.14437 3.51254 6.15337 3.47346 6.15337 3.43314C6.22339 3.14078 6.37331 2.87316 6.58671 2.65966C6.80011 2.44615 7.06873 2.29501 7.36312 2.2228V6.43791H7.34696C7.31373 8.02339 6.55248 9.40606 5.42318 10.1831H10.1485C9.01886 9.40606 8.25823 8.02339 8.22313 6.43791H8.20823V2.2228C8.50257 2.29503 8.77114 2.44618 8.98449 2.65969C9.19783 2.87319 9.3477 3.1408 9.41766 3.43314C9.4189 3.47346 9.42728 3.51254 9.44095 3.55101C9.45337 3.63287 9.46114 3.7178 9.46114 3.80459H13.2012L11.5725 6.02708H11.3694V6.43761H15.5294V6.02708H15.3272ZM1.91478 6.02708H0.614965L1.91478 4.25296V6.02708ZM2.24742 6.02708V4.25296L3.54723 6.02708H2.24742ZM13.2832 6.02708H11.9828L13.2832 4.25296V6.02708ZM13.6143 6.02708V4.25296L14.9157 6.02708H13.6143ZM2.46638 2.50408C2.46353 2.60361 2.42162 2.69812 2.34956 2.76752C2.2775 2.83692 2.18097 2.87575 2.08048 2.87575C1.97998 2.87575 1.88345 2.83692 1.81139 2.76752C1.73933 2.69812 1.69742 2.60361 1.69457 2.50408C1.69457 2.29297 1.86788 2.12064 2.08125 2.12064C2.29369 2.12033 2.46638 2.29297 2.46638 2.50408ZM13.8352 2.48377C13.8352 2.69642 13.6625 2.86506 13.4494 2.86506C13.3987 2.86538 13.3485 2.85575 13.3016 2.83671C13.2547 2.81768 13.2121 2.78962 13.1762 2.75416C13.1404 2.7187 13.1119 2.67655 13.0926 2.63014C13.0733 2.58372 13.0634 2.53397 13.0637 2.48377C13.0616 2.43228 13.07 2.38091 13.0884 2.33274C13.1069 2.28457 13.135 2.24058 13.171 2.20342C13.207 2.16627 13.2503 2.1367 13.2981 2.11651C13.3459 2.09632 13.3974 2.08591 13.4494 2.08591C13.5014 2.08591 13.5529 2.09632 13.6007 2.11651C13.6486 2.1367 13.6918 2.16627 13.7278 2.20342C13.7638 2.24058 13.7919 2.28457 13.8104 2.33274C13.8288 2.38091 13.8372 2.43228 13.8352 2.48377Z" fill="#DC9935"/>
</svg>
