<svg width="22" height="19" viewBox="0 0 22 19" fill="none" xmlns="http://www.w3.org/2000/svg">
<path d="M9.28949 0.769997L6.03949 13.965L5.25949 10.195C6.51616 10.195 7.55616 10.585 8.37949 11.365C9.20283 12.145 9.61449 13.185 9.61449 14.485C9.61449 15.785 9.20283 16.8467 8.37949 17.67C7.55616 18.4933 6.53783 18.905 5.32449 18.905C4.06783 18.905 3.02783 18.4933 2.20449 17.67C1.38116 16.8033 0.969492 15.7417 0.969492 14.485C0.969492 14.0517 0.991159 13.64 1.03449 13.25C1.12116 12.86 1.25116 12.405 1.42449 11.885C1.59783 11.3217 1.83616 10.65 2.13949 9.87L5.19449 0.769997H9.28949ZM21.5745 0.769997L18.3245 13.965L17.5445 10.195C18.8012 10.195 19.8412 10.585 20.6645 11.365C21.4878 12.145 21.8995 13.185 21.8995 14.485C21.8995 15.785 21.4878 16.8467 20.6645 17.67C19.8412 18.4933 18.8228 18.905 17.6095 18.905C16.3528 18.905 15.3128 18.4933 14.4895 17.67C13.6662 16.8033 13.2545 15.7417 13.2545 14.485C13.2545 14.0517 13.2762 13.64 13.3195 13.25C13.4062 12.86 13.5362 12.405 13.7095 11.885C13.8828 11.3217 14.1212 10.65 14.4245 9.87L17.4795 0.769997H21.5745Z" fill="white"/>
</svg>
